{
  "accessors": [
    {
      "bufferView": 2,
      "componentType": 5126,
      "count": 9469,
      "max": [
        3.4933111667633057,
        2.190793991088867,
        3.167836904525757
      ],
      "min": [
        -3.434856414794922,
        0.35314327478408813,
        -1.1782331466674805
      ],
      "type": "VEC3"
    },
    {
      "bufferView": 2,
      "byteOffset": 113628,
      "componentType": 5126,
      "count": 9469,
      "max": [
        0.9998968839645386,
        0.9828986525535583,
        0.9999819397926331
      ],
      "min": [
        -0.999951183795929,
        -0.9998816847801208,
        -0.9995145201683044
      ],
      "type": "VEC3"
    },
    {
      "bufferView": 1,
      "componentType": 5126,
      "count": 9469,
      "max": [
        0.7215667366981506,
        0.19285714626312256
      ],
      "min": [
        0.13570743799209595,
        0.05280443653464317
      ],
      "type": "VEC2"
    },
    {
      "bufferView": 0,
      "componentType": 5125,
      "count": 55524,
      "type": "SCALAR"
    },
    {
      "bufferView": 2,
      "byteOffset": 227256,
      "componentType": 5126,
      "count": 4261,
      "max": [
        3.9567482471466064,
        7.7029314041137695,
        3.575134754180908
      ],
      "min": [
        -3.871180534362793,
        1.0833680629730225,
        -2.8813695907592773
      ],
      "type": "VEC3"
    },
    {
      "bufferView": 2,
      "byteOffset": 278388,
      "componentType": 5126,
      "count": 4261,
      "max": [
        0.9979089498519897,
        1.0,
        0.9981149435043335
      ],
      "min": [
        -0.9999340772628784,
        -1.0,
        -0.9981149435043335
      ],
      "type": "VEC3"
    },
    {
      "bufferView": 1,
      "byteOffset": 75752,
      "componentType": 5126,
      "count": 4261,
      "max": [
        0.9506064057350159,
        0.9901862740516663
      ],
      "min": [
        0.02910158596932888,
        0.004044711589813232
      ],
      "type": "VEC2"
    },
    {
      "bufferView": 0,
      "byteOffset": 222096,
      "componentType": 5125,
      "count": 21882,
      "type": "SCALAR"
    }
  ],
  "asset": {
    "extras": {
      "author": "Jiaxing (https://sketchfab.com/saitoyang)",
      "license": "CC-BY-4.0 (http://creativecommons.org/licenses/by/4.0/)",
      "source": "https://sketchfab.com/3d-models/kirby-fd2774047b0f4be49540a1ebd5cf709d",
      "title": "Kirby"
    },
    "generator": "Sketchfab-14.20.0",
    "version": "2.0"
  },
  "bufferViews": [
    {
      "buffer": 0,
      "byteLength": 309624,
      "name": "floatBufferViews",
      "target": 34963
    },
    {
      "buffer": 0,
      "byteLength": 109840,
      "byteOffset": 309624,
      "byteStride": 8,
      "name": "floatBufferViews",
      "target": 34962
    },
    {
      "buffer": 0,
      "byteLength": 329520,
      "byteOffset": 419464,
      "byteStride": 12,
      "name": "floatBufferViews",
      "target": 34962
    }
  ],
  "buffers": [
    {
      "byteLength": 748984,
      "uri": "scene.bin"
    }
  ],
  "images": [
    {
      "uri": "textures/face_baseColor.png"
    },
    {
      "uri": "textures/face2_baseColor.png"
    }
  ],
  "materials": [
    {
      "doubleSided": true,
      "emissiveFactor": [
        0.3504772585973595,
        0.3504772585973595,
        0.3504772585973595
      ],
      "emissiveTexture": {
        "index": 0
      },
      "name": "face",
      "pbrMetallicRoughness": {
        "baseColorTexture": {
          "index": 0
        },
        "metallicFactor": 0.278857992710073,
        "roughnessFactor": 0.5470492862454438
      }
    },
    {
      "doubleSided": true,
      "emissiveFactor": [
        0.4723823920225281,
        0.4723823920225281,
        0.4723823920225281
      ],
      "emissiveTexture": {
        "index": 1
      },
      "name": "face2",
      "pbrMetallicRoughness": {
        "baseColorTexture": {
          "index": 1
        },
        "metallicFactor": 0.0
      }
    }
  ],
  "meshes": [
    {
      "name": "pSphere7_face_0",
      "primitives": [
        {
          "attributes": {
            "NORMAL": 1,
            "POSITION": 0,
            "TEXCOORD_0": 2
          },
          "indices": 3,
          "material": 0,
          "mode": 4
        }
      ]
    },
    {
      "name": "pSphere7_face2_0",
      "primitives": [
        {
          "attributes": {
            "NORMAL": 5,
            "POSITION": 4,
            "TEXCOORD_0": 6
          },
          "indices": 7,
          "material": 1,
          "mode": 4
        }
      ]
    }
  ],
  "nodes": [
    {
      "children": [
        1
      ],
      "matrix": [
        1.0,
        0.0,
        0.0,
        0.0,
        0.0,
        2.220446049250313e-16,
        -1.0,
        0.0,
        0.0,
        1.0,
        2.220446049250313e-16,
        0.0,
        0.0,
        0.0,
        0.0,
        1.0
      ],
      "name": "Sketchfab_model"
    },
    {
      "children": [
        2
      ],
      "matrix": [
        0.009999999776482582,
        0.0,
        0.0,
        0.0,
        0.0,
        0.0,
        0.009999999776482582,
        0.0,
        0.0,
        -0.009999999776482582,
        0.0,
        0.0,
        0.0,
        0.0,
        0.0,
        1.0
      ],
      "name": "cf7a8cb05b8640bbacff198186ab0693.fbx"
    },
    {
      "children": [
        3
      ],
      "name": "RootNode"
    },
    {
      "children": [
        4,
        5
      ],
      "name": "pSphere7"
    },
    {
      "mesh": 0,
      "name": "pSphere7_face_0"
    },
    {
      "mesh": 1,
      "name": "pSphere7_face2_0"
    }
  ],
  "samplers": [
    {
      "magFilter": 9729,
      "minFilter": 9987,
      "wrapS": 10497,
      "wrapT": 10497
    }
  ],
  "scene": 0,
  "scenes": [
    {
      "name": "Sketchfab_Scene",
      "nodes": [
        0
      ]
    }
  ],
  "textures": [
    {
      "sampler": 0,
      "source": 0
    },
    {
      "sampler": 0,
      "source": 1
    }
  ]
}
